<svg xmlns="http://www.w3.org/2000/svg" xmlns:xlink="http://www.w3.org/1999/xlink" xmlns:lucid="lucid" width="1196" height="1167"><g transform="translate(881 881)" lucid:page-tab-id="0_0"><path d="M-1000-1000H500V500h-1500z" fill="#fff"/><path d="M-400-874a6 6 0 0 1 6-6H54a6 6 0 0 1 6 6v235a6 6 0 0 1-6 6h-448a6 6 0 0 1-6-6z" stroke="#000" stroke-width="2" fill="#fff"/><path d="M-400-841.4H60m-460 165.7H60" stroke="#000" stroke-width="2" fill="none"/><use xlink:href="#a" transform="matrix(1,0,0,1,-392,-872) translate(190.82356770833331 18.290364583333336)"/><use xlink:href="#b" transform="matrix(1,0,0,1,-388,-833.4140625) translate(0 20.810416666666665)"/><use xlink:href="#c" transform="matrix(1,0,0,1,-388,-833.4140625) translate(15.812500000000004 20.810416666666665)"/><use xlink:href="#d" transform="matrix(1,0,0,1,-388,-833.4140625) translate(46.1875 20.810416666666665)"/><use xlink:href="#b" transform="matrix(1,0,0,1,-388,-833.4140625) translate(0 51.78541666666666)"/><use xlink:href="#e" transform="matrix(1,0,0,1,-388,-833.4140625) translate(15.812500000000004 51.78541666666666)"/><use xlink:href="#f" transform="matrix(1,0,0,1,-388,-833.4140625) translate(84.47916666666669 51.78541666666666)"/><use xlink:href="#b" transform="matrix(1,0,0,1,-388,-833.4140625) translate(0 82.76041666666666)"/><use xlink:href="#g" transform="matrix(1,0,0,1,-388,-833.4140625) translate(15.812500000000004 82.76041666666666)"/><use xlink:href="#f" transform="matrix(1,0,0,1,-388,-833.4140625) translate(127.60416666666669 82.76041666666666)"/><use xlink:href="#b" transform="matrix(1,0,0,1,-388,-833.4140625) translate(0 113.73541666666667)"/><use xlink:href="#h" transform="matrix(1,0,0,1,-388,-833.4140625) translate(15.812500000000004 113.73541666666667)"/><use xlink:href="#i" transform="matrix(1,0,0,1,-388,-833.4140625) translate(125.70833333333334 113.73541666666667)"/><use xlink:href="#b" transform="matrix(1,0,0,1,-388,-833.4140625) translate(0 144.71041666666665)"/><use xlink:href="#j" transform="matrix(1,0,0,1,-388,-833.4140625) translate(15.812500000000004 144.71041666666665)"/><use xlink:href="#k" transform="matrix(1,0,0,1,-388,-833.4140625) translate(108.51041666666667 144.71041666666665)"/><path d="M-880-314a6 6 0 0 1 6-6h362a6 6 0 0 1 6 6v173a6 6 0 0 1-6 6h-362a6 6 0 0 1-6-6z" stroke="#000" stroke-width="2" fill="#fff"/><path d="M-880-281.4h374m-374 103.75h374" stroke="#000" stroke-width="2" fill="none"/><use xlink:href="#l" transform="matrix(1,0,0,1,-872,-312) translate(157.28776041666666 18.290364583333336)"/><use xlink:href="#b" transform="matrix(1,0,0,1,-868,-273.4140625) translate(0 20.785416666666674)"/><use xlink:href="#c" transform="matrix(1,0,0,1,-868,-273.4140625) translate(15.812500000000004 20.785416666666674)"/><use xlink:href="#d" transform="matrix(1,0,0,1,-868,-273.4140625) translate(46.1875 20.785416666666674)"/><use xlink:href="#b" transform="matrix(1,0,0,1,-868,-273.4140625) translate(0 51.76041666666667)"/><use xlink:href="#g" transform="matrix(1,0,0,1,-868,-273.4140625) translate(15.812500000000004 51.76041666666667)"/><use xlink:href="#f" transform="matrix(1,0,0,1,-868,-273.4140625) translate(127.60416666666669 51.76041666666667)"/><use xlink:href="#b" transform="matrix(1,0,0,1,-868,-273.4140625) translate(0 82.73541666666667)"/><use xlink:href="#m" transform="matrix(1,0,0,1,-868,-273.4140625) translate(15.812500000000004 82.73541666666667)"/><use xlink:href="#n" transform="matrix(1,0,0,1,-868,-273.4140625) translate(117.44791666666667 82.73541666666667)"/><path d="M-180-394a6 6 0 0 1 6-6h468a6 6 0 0 1 6 6v235a6 6 0 0 1-6 6h-468a6 6 0 0 1-6-6z" stroke="#000" stroke-width="2" fill="#fff"/><path d="M-180-361.4h480m-480 165.7h480" stroke="#000" stroke-width="2" fill="none"/><g><use xlink:href="#o" transform="matrix(1,0,0,1,-172,-392) translate(204.068359375 18.290364583333336)"/></g><g><use xlink:href="#b" transform="matrix(1,0,0,1,-168,-353.4140625) translate(0 20.810416666666665)"/><use xlink:href="#c" transform="matrix(1,0,0,1,-168,-353.4140625) translate(15.812500000000004 20.810416666666665)"/><use xlink:href="#d" transform="matrix(1,0,0,1,-168,-353.4140625) translate(46.1875 20.810416666666665)"/><use xlink:href="#b" transform="matrix(1,0,0,1,-168,-353.4140625) translate(0 51.78541666666666)"/><use xlink:href="#p" transform="matrix(1,0,0,1,-168,-353.4140625) translate(15.812500000000004 51.78541666666666)"/><use xlink:href="#f" transform="matrix(1,0,0,1,-168,-353.4140625) translate(77.65625000000001 51.78541666666666)"/><use xlink:href="#b" transform="matrix(1,0,0,1,-168,-353.4140625) translate(0 82.76041666666666)"/><use xlink:href="#g" transform="matrix(1,0,0,1,-168,-353.4140625) translate(15.812500000000004 82.76041666666666)"/><use xlink:href="#f" transform="matrix(1,0,0,1,-168,-353.4140625) translate(127.60416666666669 82.76041666666666)"/><use xlink:href="#b" transform="matrix(1,0,0,1,-168,-353.4140625) translate(0 113.73541666666667)"/><use xlink:href="#q" transform="matrix(1,0,0,1,-168,-353.4140625) translate(15.812500000000004 113.73541666666667)"/><use xlink:href="#r" transform="matrix(1,0,0,1,-168,-353.4140625) translate(89.13541666666667 113.73541666666667)"/><use xlink:href="#b" transform="matrix(1,0,0,1,-168,-353.4140625) translate(0 144.71041666666665)"/><use xlink:href="#m" transform="matrix(1,0,0,1,-168,-353.4140625) translate(15.812500000000004 144.71041666666665)"/><use xlink:href="#n" transform="matrix(1,0,0,1,-168,-353.4140625) translate(117.44791666666667 144.71041666666665)"/></g><path d="M-60 106a6 6 0 0 1 6-6h362a6 6 0 0 1 6 6v173a6 6 0 0 1-6 6H-54a6 6 0 0 1-6-6z" stroke="#000" stroke-width="2" fill="#fff"/><path d="M-60 138.6h374M-60 242.34h374" stroke="#000" stroke-width="2" fill="none"/><g><use xlink:href="#s" transform="matrix(1,0,0,1,-52,108) translate(98.92252604166669 18.290364583333336)"/></g><g><use xlink:href="#t" transform="matrix(1,0,0,1,-48,146.5859375) translate(0 20.785416666666674)"/><use xlink:href="#u" transform="matrix(1,0,0,1,-48,146.5859375) translate(0 51.76041666666667)"/><use xlink:href="#v" transform="matrix(1,0,0,1,-48,146.5859375) translate(0 82.73541666666667)"/></g><path d="M-170.02-631l-.04 1.88-.18 2.8-.3 2.77-.4 2.73-.5 2.7-.64 2.68-.74 2.68-.88 2.7-1 2.68-1.15 2.73-1.3 2.75-1.46 2.8-1.67 2.88-1.86 2.93-2.1 3.04-2.38 3.13-2.7 3.25-3.07 3.4-3.5 3.57-4.02 3.76-4.64 4-5.43 4.3-6.4 4.65-7.63 5.08-9.26 5.6-11.44 6.28-14.53 7.2-19.18 8.5-27.08 10.68-44.74 15.47-207.3 65.26-27.07 10.67-19.17 8.52-14.53 7.2-11.44 6.27-9.26 5.6-7.63 5.07-6.4 4.63-5.43 4.3-4.65 4-4.03 3.78-3.5 3.58-3.06 3.4-2.7 3.25-2.36 3.13-2.1 3.03-1.87 2.93-1.66 2.86-1.46 2.8-1.3 2.75-1.14 2.73-.2.53" stroke="#5e5e5e" stroke-width="2" stroke-linejoin="round" fill="none"/><path d="M-169.05-630.95L-171-631l.03-1h1.94z" stroke="#5e5e5e" stroke-width=".05" fill="#5e5e5e"/><path d="M-692.63-322.97l-8.3-23.57 24.56 4.6z" stroke="#5e5e5e" stroke-width="2" fill="#fff"/><g><use xlink:href="#w" transform="matrix(1,0,0,1,-185.74815020025633,-632.5502415908292) translate(0 16.216875)"/></g><g><use xlink:href="#x" transform="matrix(1,0,0,1,-671.3870792178143,-341.1971845814703) translate(0 16.216875)"/></g><path d="M-86.55-631l.1 4.54.33 5.22.52 4.95.7 4.74.86 4.53 1.02 4.37 1.2 4.25 1.33 4.14 1.53 4.07 1.7 4.03 1.88 4 2.1 4.02 2.34 4.04 2.6 4.1 2.96 4.25 3.35 4.4 3.85 4.66 4.55 5.05 5.5 5.63 7.14 6.68 10.73 9.24 44.7 36.44 7.14 6.68 5.52 5.63 4.53 5.04 3.86 4.65 3.33 4.4 2.95 4.24 2.6 4.1 2.35 4.05 2.1 4 1.88 4.02 1.7 4.02 1.52 4.06 1.35 4.15 1.18 4.26 1.03 4.37.1.48" stroke="#5e5e5e" stroke-width="2" stroke-linejoin="round" fill="none"/><path d="M-85.57-631l-1.95.05-.02-1.05h1.95z" stroke="#5e5e5e" stroke-width=".05" fill="#5e5e5e"/><path d="M59.8-403l-14.58-20.3 24.88-2.47z" stroke="#5e5e5e" stroke-width="2" fill="#fff"/><g><use xlink:href="#w" transform="matrix(1,0,0,1,-101.05606518452694,-632.7680694735124) translate(0 16.216875)"/></g><g><use xlink:href="#x" transform="matrix(1,0,0,1,80.14619461396995,-421.11934291427707) translate(0 16.216875)"/></g><path d="M60.02-151l.26 12.72.75 11.97 1.1 10.63 1.43 9.65 1.7 8.9 1.97 8.4 2.25 8.05 2.6 7.96 3.02 8.16 3.74 8.87 5.2 11 24.12 47.34 3.74 8.88 3.03 8.16 2.6 7.97 2.24 8.06 1.97 8.4 1.7 8.9 1.42 9.64 1.1 10.64.08 1.07" stroke="#5e5e5e" stroke-width="2" stroke-linejoin="round" fill="none"/><path d="M61-151l-1.95.05-.02-1.05h1.95z" stroke="#5e5e5e" stroke-width=".05" fill="#5e5e5e"/><path d="M126.92 97L113.6 75.86l24.97-.98z" stroke="#5e5e5e" stroke-width="2" fill="#fff"/><defs><path d="M180 0v-1490h510c348 0 508 209 508 474 0 266-160 477-507 477H370V0H180zm190-706h312c236 0 327-133 327-310 0-176-91-307-329-307H370v617" id="y"/><path d="M158 0v-1118h174v172h12c41-113 157-188 290-188 26 0 70 2 91 3v181c-11-2-60-10-108-10-161 0-279 109-279 260V0H158" id="z"/><path d="M613 24c-304 0-509-231-509-576 0-350 205-580 509-580 305 0 511 230 511 580 0 345-206 576-511 576zm0-161c226 0 329-195 329-415 0-222-103-419-329-419-223 0-326 196-326 419 0 220 103 415 326 415" id="A"/><path d="M157-1118h181V80c1 225-123 350-364 338V252c126 9 184-48 183-172v-1198zm91-183c-68 0-125-53-125-119s57-119 125-119c69 0 126 53 126 119s-57 119-126 119" id="B"/><path d="M628 24c-324 0-524-230-524-574 0-343 198-582 503-582 237 0 487 146 487 559v75H286c9 234 145 362 343 362 132 0 231-58 273-172l174 48C1024-91 857 24 628 24zM287-650h624c-17-190-120-322-304-322-192 0-309 151-320 322" id="C"/><path d="M598-1118v154H368v674c0 100 37 144 132 144 23 0 62-6 92-12L629-6c-37 13-88 20-134 20-193 0-307-107-307-290v-688H20v-154h168v-266h180v266h230" id="D"/><g id="a"><use transform="matrix(0.009114583333333334,0,0,0.009114583333333334,0,0)" xlink:href="#y"/><use transform="matrix(0.009114583333333334,0,0,0.009114583333333334,11.921875,0)" xlink:href="#z"/><use transform="matrix(0.009114583333333334,0,0,0.009114583333333334,18.639322916666668,0)" xlink:href="#A"/><use transform="matrix(0.009114583333333334,0,0,0.009114583333333334,29.832031250000004,0)" xlink:href="#B"/><use transform="matrix(0.009114583333333334,0,0,0.009114583333333334,34.352864583333336,0)" xlink:href="#C"/><use transform="matrix(0.009114583333333334,0,0,0.009114583333333334,45.235677083333336,0)" xlink:href="#D"/><use transform="matrix(0.009114583333333334,0,0,0.009114583333333334,51.16015625,0)" xlink:href="#A"/></g><path d="M798-719v166H144v-166h654" id="E"/><use transform="matrix(0.010416666666666668,0,0,0.010416666666666668,0,0)" xlink:href="#E" id="b"/><path d="M158 0v-1118h180V0H158zm91-1301c-68 0-125-53-125-119s57-119 125-119c69 0 126 53 126 119s-57 119-126 119" id="F"/><path d="M577 24c-279 0-473-224-473-580 0-354 195-576 474-576 218 0 287 134 324 193h14v-551h180V0H922v-173h-20C865-111 790 24 577 24zm27-161c203 0 314-172 314-421 0-247-108-413-314-413-212 0-317 181-317 413 0 235 108 421 317 421" id="G"/><path d="M295 13c-75 0-135-60-135-135s60-135 135-135 135 60 135 135S370 13 295 13zm0-809c-75 0-135-60-135-135s60-135 135-135 135 60 135 135-60 135-135 135" id="H"/><g id="c"><use transform="matrix(0.010416666666666668,0,0,0.010416666666666668,0,0)" xlink:href="#F"/><use transform="matrix(0.010416666666666668,0,0,0.010416666666666668,5.166666666666667,0)" xlink:href="#G"/><use transform="matrix(0.010416666666666668,0,0,0.010416666666666668,18.229166666666668,0)" xlink:href="#H"/></g><path d="M338-670V0H158v-1118h173l1 207c72-158 192-221 342-221 226 0 378 139 378 422V0H872v-695c0-172-96-275-252-275-161 0-282 109-282 300" id="I"/><g id="d"><use transform="matrix(0.010416666666666668,0,0,0.010416666666666668,0,0)" xlink:href="#F"/><use transform="matrix(0.010416666666666668,0,0,0.010416666666666668,5.166666666666667,0)" xlink:href="#I"/><use transform="matrix(0.010416666666666668,0,0,0.010416666666666668,17.770833333333336,0)" xlink:href="#D"/></g><path d="M158 0v-1118h175l1 205c55-151 181-225 313-225 147 0 245 90 285 228 53-141 190-228 352-228 194 0 352 125 352 384V0h-181v-749c0-161-105-225-225-225-151 0-243 103-243 244V0H807v-767c0-124-93-207-219-207-131 0-250 92-250 270V0H158" id="J"/><g id="e"><use transform="matrix(0.010416666666666668,0,0,0.010416666666666668,0,0)" xlink:href="#I"/><use transform="matrix(0.010416666666666668,0,0,0.010416666666666668,12.604166666666668,0)" xlink:href="#A"/><use transform="matrix(0.010416666666666668,0,0,0.010416666666666668,25.395833333333336,0)" xlink:href="#J"/><use transform="matrix(0.010416666666666668,0,0,0.010416666666666668,44.083333333333336,0)" xlink:href="#C"/><use transform="matrix(0.010416666666666668,0,0,0.010416666666666668,56.52083333333334,0)" xlink:href="#H"/></g><path d="M657 26c-323 0-524-166-541-416h195c15 169 171 246 346 246 202 0 356-106 356-265 5-203-294-238-475-293-239-73-380-191-380-389 0-252 224-419 512-419 294 0 499 171 508 396H992c-17-145-151-228-328-228-193 0-321 102-321 242 0 156 175 211 284 241l149 41c160 44 422 134 422 412 0 244-197 432-541 432" id="K"/><path d="M611 442c-248 0-391-105-460-228l146-94c47 65 117 165 314 165 178 0 307-82 307-266v-224h-17C863-141 792-18 576-18c-268 0-472-195-472-546 0-346 197-568 476-568 216 0 288 133 326 193h17v-179h175V29c0 289-215 413-487 413zm-5-620c203 0 314-146 314-390 0-237-108-403-314-403-213 0-319 180-319 403 0 230 109 390 319 390" id="L"/><g id="f"><use transform="matrix(0.010416666666666668,0,0,0.010416666666666668,0,0)" xlink:href="#K"/><use transform="matrix(0.010416666666666668,0,0,0.010416666666666668,13.687500000000002,0)" xlink:href="#D"/><use transform="matrix(0.010416666666666668,0,0,0.010416666666666668,20.66666666666667,0)" xlink:href="#z"/><use transform="matrix(0.010416666666666668,0,0,0.010416666666666668,29.031250000000007,0)" xlink:href="#F"/><use transform="matrix(0.010416666666666668,0,0,0.010416666666666668,34.19791666666667,0)" xlink:href="#I"/><use transform="matrix(0.010416666666666668,0,0,0.010416666666666668,46.802083333333336,0)" xlink:href="#L"/></g><path d="M538 24C308 24 148-78 108-271l171-41c32 123 123 178 257 178 156 0 256-77 256-169 0-77-54-128-164-154l-186-44c-203-48-300-148-300-305 0-192 176-326 414-326 230 0 351 112 402 269l-163 42c-31-80-94-158-238-158-133 0-233 69-233 162 0 83 57 129 188 160l169 40c203 48 298 149 298 302 0 196-179 339-441 339" id="M"/><path d="M613 24c-304 0-509-231-509-576 0-350 205-580 509-580 216 0 392 114 453 309l-173 49c-33-115-133-197-280-197-223 0-326 196-326 419 0 220 103 415 326 415 150 0 252-85 285-206l172 49C1010-95 832 24 613 24" id="N"/><path d="M471 26C259 26 90-98 90-318c0-256 228-303 435-329 202-27 287-16 287-108 0-139-79-219-234-219-161 0-248 86-283 164l-173-57c86-203 278-265 451-265 150 0 419 46 419 395V0H815v-152h-12C765-73 660 26 471 26zm31-159c199 0 310-134 310-271v-155c-30 35-226 55-295 64-131 17-246 59-246 186 0 116 97 176 231 176" id="O"/><g id="g"><use transform="matrix(0.010416666666666668,0,0,0.010416666666666668,0,0)" xlink:href="#G"/><use transform="matrix(0.010416666666666668,0,0,0.010416666666666668,13.062500000000002,0)" xlink:href="#C"/><use transform="matrix(0.010416666666666668,0,0,0.010416666666666668,25.500000000000004,0)" xlink:href="#M"/><use transform="matrix(0.010416666666666668,0,0,0.010416666666666668,36.76041666666667,0)" xlink:href="#N"/><use transform="matrix(0.010416666666666668,0,0,0.010416666666666668,48.94791666666667,0)" xlink:href="#z"/><use transform="matrix(0.010416666666666668,0,0,0.010416666666666668,57.31250000000001,0)" xlink:href="#F"/><use transform="matrix(0.010416666666666668,0,0,0.010416666666666668,62.47916666666667,0)" xlink:href="#N"/><use transform="matrix(0.010416666666666668,0,0,0.010416666666666668,74.87500000000001,0)" xlink:href="#O"/><use transform="matrix(0.010416666666666668,0,0,0.010416666666666668,86.85416666666667,0)" xlink:href="#A"/><use transform="matrix(0.010416666666666668,0,0,0.010416666666666668,99.64583333333336,0)" xlink:href="#H"/></g><path d="M370-1490V0H180v-1490h190" id="P"/><g id="h"><use transform="matrix(0.010416666666666668,0,0,0.010416666666666668,0,0)" xlink:href="#G"/><use transform="matrix(0.010416666666666668,0,0,0.010416666666666668,13.062500000000002,0)" xlink:href="#O"/><use transform="matrix(0.010416666666666668,0,0,0.010416666666666668,25.041666666666668,0)" xlink:href="#D"/><use transform="matrix(0.010416666666666668,0,0,0.010416666666666668,32.12500000000001,0)" xlink:href="#O"/><use transform="matrix(0.010416666666666668,0,0,0.010416666666666668,44.10416666666667,0)" xlink:href="#P"/><use transform="matrix(0.010416666666666668,0,0,0.010416666666666668,49.833333333333336,0)" xlink:href="#I"/><use transform="matrix(0.010416666666666668,0,0,0.010416666666666668,62.4375,0)" xlink:href="#F"/><use transform="matrix(0.010416666666666668,0,0,0.010416666666666668,67.60416666666667,0)" xlink:href="#N"/><use transform="matrix(0.010416666666666668,0,0,0.010416666666666668,79.79166666666667,0)" xlink:href="#F"/><use transform="matrix(0.010416666666666668,0,0,0.010416666666666668,84.95833333333334,0)" xlink:href="#A"/><use transform="matrix(0.010416666666666668,0,0,0.010416666666666668,97.75000000000001,0)" xlink:href="#H"/></g><path d="M645 0H180v-1490h484c435 0 692 280 692 742 0 466-257 748-711 748zM370-168h263c363 0 539-218 539-580 0-358-176-574-521-574H370v1154" id="Q"/><g id="i"><use transform="matrix(0.010416666666666668,0,0,0.010416666666666668,0,0)" xlink:href="#Q"/><use transform="matrix(0.010416666666666668,0,0,0.010416666666666668,15.395833333333336,0)" xlink:href="#O"/><use transform="matrix(0.010416666666666668,0,0,0.010416666666666668,27.375000000000004,0)" xlink:href="#D"/><use transform="matrix(0.010416666666666668,0,0,0.010416666666666668,34.14583333333334,0)" xlink:href="#C"/></g><path d="M180 0v-1490h901v168H370v510h643v168H370V0H180" id="R"/><g id="j"><use transform="matrix(0.010416666666666668,0,0,0.010416666666666668,0,0)" xlink:href="#G"/><use transform="matrix(0.010416666666666668,0,0,0.010416666666666668,13.062500000000002,0)" xlink:href="#O"/><use transform="matrix(0.010416666666666668,0,0,0.010416666666666668,25.041666666666668,0)" xlink:href="#D"/><use transform="matrix(0.010416666666666668,0,0,0.010416666666666668,32.12500000000001,0)" xlink:href="#O"/><use transform="matrix(0.010416666666666668,0,0,0.010416666666666668,44.10416666666667,0)" xlink:href="#R"/><use transform="matrix(0.010416666666666668,0,0,0.010416666666666668,56.69791666666667,0)" xlink:href="#F"/><use transform="matrix(0.010416666666666668,0,0,0.010416666666666668,61.86458333333334,0)" xlink:href="#J"/><use transform="matrix(0.010416666666666668,0,0,0.010416666666666668,80.55208333333334,0)" xlink:href="#H"/></g><g id="k"><use transform="matrix(0.010416666666666668,0,0,0.010416666666666668,0,0)" xlink:href="#Q"/><use transform="matrix(0.010416666666666668,0,0,0.010416666666666668,15.395833333333336,0)" xlink:href="#O"/><use transform="matrix(0.010416666666666668,0,0,0.010416666666666668,27.375000000000004,0)" xlink:href="#D"/><use transform="matrix(0.010416666666666668,0,0,0.010416666666666668,34.14583333333334,0)" xlink:href="#C"/></g><path d="M180 0v-1490h270l367 940c28 72 75 218 110 339 35-117 81-264 110-339l362-940h271V0h-187c2-448-5-837 7-1287-157 497-311 829-483 1287H842C666-458 514-784 354-1284c12 438 5 843 7 1284H180" id="S"/><g id="l"><use transform="matrix(0.009114583333333334,0,0,0.009114583333333334,0,0)" xlink:href="#S"/><use transform="matrix(0.009114583333333334,0,0,0.009114583333333334,16.861979166666668,0)" xlink:href="#C"/><use transform="matrix(0.009114583333333334,0,0,0.009114583333333334,27.744791666666668,0)" xlink:href="#D"/><use transform="matrix(0.009114583333333334,0,0,0.009114583333333334,33.942708333333336,0)" xlink:href="#O"/></g><path d="M158 418v-1536h174v179h20c37-59 106-193 324-193 279 0 474 222 474 576 0 356-194 580-473 580-213 0-288-135-325-197h-14v591H158zm492-555c209 0 317-186 317-421 0-232-105-413-317-413-206 0-314 166-314 413 0 249 111 421 314 421" id="T"/><g id="m"><use transform="matrix(0.010416666666666668,0,0,0.010416666666666668,0,0)" xlink:href="#T"/><use transform="matrix(0.010416666666666668,0,0,0.010416666666666668,13.062500000000002,0)" xlink:href="#z"/><use transform="matrix(0.010416666666666668,0,0,0.010416666666666668,20.739583333333336,0)" xlink:href="#A"/><use transform="matrix(0.010416666666666668,0,0,0.010416666666666668,33.53125,0)" xlink:href="#B"/><use transform="matrix(0.010416666666666668,0,0,0.010416666666666668,38.697916666666664,0)" xlink:href="#C"/><use transform="matrix(0.010416666666666668,0,0,0.010416666666666668,51.135416666666664,0)" xlink:href="#D"/><use transform="matrix(0.010416666666666668,0,0,0.010416666666666668,57.90625,0)" xlink:href="#A"/><use transform="matrix(0.010416666666666668,0,0,0.010416666666666668,70.69791666666667,0)" xlink:href="#P"/><use transform="matrix(0.010416666666666668,0,0,0.010416666666666668,76.42708333333334,0)" xlink:href="#G"/><use transform="matrix(0.010416666666666668,0,0,0.010416666666666668,89.48958333333334,0)" xlink:href="#H"/></g><g id="n"><use transform="matrix(0.010416666666666668,0,0,0.010416666666666668,0,0)" xlink:href="#F"/><use transform="matrix(0.010416666666666668,0,0,0.010416666666666668,5.166666666666667,0)" xlink:href="#I"/><use transform="matrix(0.010416666666666668,0,0,0.010416666666666668,17.770833333333336,0)" xlink:href="#D"/></g><path d="M98-1322v-168h1126v168H757V0H567v-1322H98" id="U"/><path d="M678-1118v154H420V0H240v-964H20v-154h220v-149c0-194 155-293 318-293 85 0 141 18 168 30l-50 154c-19-6-47-17-97-17-111 0-159 58-159 166v109h258" id="V"/><g id="o"><use transform="matrix(0.009114583333333334,0,0,0.009114583333333334,0,0)" xlink:href="#U"/><use transform="matrix(0.009114583333333334,0,0,0.009114583333333334,10.682291666666668,0)" xlink:href="#O"/><use transform="matrix(0.009114583333333334,0,0,0.009114583333333334,21.1640625,0)" xlink:href="#z"/><use transform="matrix(0.009114583333333334,0,0,0.009114583333333334,27.881510416666668,0)" xlink:href="#C"/><use transform="matrix(0.009114583333333334,0,0,0.009114583333333334,38.76432291666667,0)" xlink:href="#V"/><use transform="matrix(0.009114583333333334,0,0,0.009114583333333334,45.38151041666667,0)" xlink:href="#O"/></g><path d="M537 14c-226 0-379-139-379-422v-710h180v695c0 172 97 275 253 275 160 0 281-109 281-300v-670h181V0H879v-209C806-46 684 14 537 14" id="W"/><path d="M338-1490V0H158v-1490h180" id="X"/><g id="p"><use transform="matrix(0.010416666666666668,0,0,0.010416666666666668,0,0)" xlink:href="#D"/><use transform="matrix(0.010416666666666668,0,0,0.010416666666666668,6.979166666666668,0)" xlink:href="#F"/><use transform="matrix(0.010416666666666668,0,0,0.010416666666666668,12.145833333333334,0)" xlink:href="#D"/><use transform="matrix(0.010416666666666668,0,0,0.010416666666666668,19.125000000000004,0)" xlink:href="#W"/><use transform="matrix(0.010416666666666668,0,0,0.010416666666666668,31.739583333333336,0)" xlink:href="#X"/><use transform="matrix(0.010416666666666668,0,0,0.010416666666666668,36.90625,0)" xlink:href="#A"/><use transform="matrix(0.010416666666666668,0,0,0.010416666666666668,49.69791666666667,0)" xlink:href="#H"/></g><g id="q"><use transform="matrix(0.010416666666666668,0,0,0.010416666666666668,0,0)" xlink:href="#M"/><use transform="matrix(0.010416666666666668,0,0,0.010416666666666668,11.260416666666668,0)" xlink:href="#D"/><use transform="matrix(0.010416666666666668,0,0,0.010416666666666668,18.34375,0)" xlink:href="#O"/><use transform="matrix(0.010416666666666668,0,0,0.010416666666666668,30.32291666666667,0)" xlink:href="#D"/><use transform="matrix(0.010416666666666668,0,0,0.010416666666666668,37.302083333333336,0)" xlink:href="#W"/><use transform="matrix(0.010416666666666668,0,0,0.010416666666666668,49.91666666666667,0)" xlink:href="#M"/><use transform="matrix(0.010416666666666668,0,0,0.010416666666666668,61.17708333333334,0)" xlink:href="#H"/></g><path d="M180 0v-1490h908v168H370v486h669v168H370v500h727V0H180" id="Y"/><g id="r"><use transform="matrix(0.010416666666666668,0,0,0.010416666666666668,0,0)" xlink:href="#U"/><use transform="matrix(0.010416666666666668,0,0,0.010416666666666668,12.208333333333334,0)" xlink:href="#O"/><use transform="matrix(0.010416666666666668,0,0,0.010416666666666668,24.187500000000004,0)" xlink:href="#z"/><use transform="matrix(0.010416666666666668,0,0,0.010416666666666668,31.864583333333336,0)" xlink:href="#C"/><use transform="matrix(0.010416666666666668,0,0,0.010416666666666668,44.302083333333336,0)" xlink:href="#V"/><use transform="matrix(0.010416666666666668,0,0,0.010416666666666668,51.864583333333336,0)" xlink:href="#O"/><use transform="matrix(0.010416666666666668,0,0,0.010416666666666668,63.84375,0)" xlink:href="#K"/><use transform="matrix(0.010416666666666668,0,0,0.010416666666666668,77.53125,0)" xlink:href="#D"/><use transform="matrix(0.010416666666666668,0,0,0.010416666666666668,84.61458333333334,0)" xlink:href="#O"/><use transform="matrix(0.010416666666666668,0,0,0.010416666666666668,96.59375000000001,0)" xlink:href="#D"/><use transform="matrix(0.010416666666666668,0,0,0.010416666666666668,103.57291666666667,0)" xlink:href="#W"/><use transform="matrix(0.010416666666666668,0,0,0.010416666666666668,116.18750000000001,0)" xlink:href="#M"/><use transform="matrix(0.010416666666666668,0,0,0.010416666666666668,127.44791666666669,0)" xlink:href="#Y"/><use transform="matrix(0.010416666666666668,0,0,0.010416666666666668,140.27083333333334,0)" xlink:href="#I"/><use transform="matrix(0.010416666666666668,0,0,0.010416666666666668,152.875,0)" xlink:href="#W"/><use transform="matrix(0.010416666666666668,0,0,0.010416666666666668,165.48958333333334,0)" xlink:href="#J"/></g><g id="s"><use transform="matrix(0.009114583333333334,0,0,0.009114583333333334,0,0)" xlink:href="#U"/><use transform="matrix(0.009114583333333334,0,0,0.009114583333333334,10.682291666666668,0)" xlink:href="#O"/><use transform="matrix(0.009114583333333334,0,0,0.009114583333333334,21.1640625,0)" xlink:href="#z"/><use transform="matrix(0.009114583333333334,0,0,0.009114583333333334,27.881510416666668,0)" xlink:href="#C"/><use transform="matrix(0.009114583333333334,0,0,0.009114583333333334,38.76432291666667,0)" xlink:href="#V"/><use transform="matrix(0.009114583333333334,0,0,0.009114583333333334,45.38151041666667,0)" xlink:href="#O"/><use transform="matrix(0.009114583333333334,0,0,0.009114583333333334,55.86328125,0)" xlink:href="#K"/><use transform="matrix(0.009114583333333334,0,0,0.009114583333333334,67.83984375,0)" xlink:href="#D"/><use transform="matrix(0.009114583333333334,0,0,0.009114583333333334,74.03776041666666,0)" xlink:href="#O"/><use transform="matrix(0.009114583333333334,0,0,0.009114583333333334,84.51953124999999,0)" xlink:href="#D"/><use transform="matrix(0.009114583333333334,0,0,0.009114583333333334,90.62630208333333,0)" xlink:href="#W"/><use transform="matrix(0.009114583333333334,0,0,0.009114583333333334,101.66406249999999,0)" xlink:href="#M"/><use transform="matrix(0.009114583333333334,0,0,0.009114583333333334,111.5169270833333,0)" xlink:href="#Y"/><use transform="matrix(0.009114583333333334,0,0,0.009114583333333334,122.73697916666664,0)" xlink:href="#I"/><use transform="matrix(0.009114583333333334,0,0,0.009114583333333334,133.76562499999997,0)" xlink:href="#W"/><use transform="matrix(0.009114583333333334,0,0,0.009114583333333334,144.80338541666663,0)" xlink:href="#J"/></g><path d="M52 0l541-1490h220L1361 0h-200l-149-416H398L254 0H52zm404-582h497c-103-290-145-390-251-756-108 377-145 460-246 756" id="Z"/><path d="M934 0v166H0V0h934" id="aa"/><path d="M130 0v-134l666-991c45-67 96-135 147-202-269 9-546 3-821 5v-168h1036v136L502-379c-49 72-103 145-157 216 268-9 546-3 821-5V0H130" id="ab"/><path d="M180 0v-1490h510c348 0 508 194 508 460 0 198-88 351-276 417L1256 0h-220L726-579c-117 2-238 0-356 1V0H180zm190-747h312c235 0 327-108 327-283 0-177-92-293-329-293H370v576" id="ac"/><g id="t"><use transform="matrix(0.010416666666666668,0,0,0.010416666666666668,0,0)" xlink:href="#Z"/><use transform="matrix(0.010416666666666668,0,0,0.010416666666666668,14.718750000000002,0)" xlink:href="#aa"/><use transform="matrix(0.010416666666666668,0,0,0.010416666666666668,25.166666666666668,0)" xlink:href="#R"/><use transform="matrix(0.010416666666666668,0,0,0.010416666666666668,35.82291666666667,0)" xlink:href="#Z"/><use transform="matrix(0.010416666666666668,0,0,0.010416666666666668,50.54166666666667,0)" xlink:href="#ab"/><use transform="matrix(0.010416666666666668,0,0,0.010416666666666668,63.95833333333334,0)" xlink:href="#Y"/><use transform="matrix(0.010416666666666668,0,0,0.010416666666666668,76.78125000000001,0)" xlink:href="#ac"/></g><path d="M180 0v-1490h224l606 953c40 63 108 177 176 312-27-437-7-821-13-1265h190V0h-226C860-448 622-778 356-1262c27 476 11 792 15 1262H180" id="ad"/><path d="M784 20c-382 0-662-292-662-764 0-473 280-766 662-766s660 293 660 766c0 472-278 764-660 764zm0-176c266 0 475-207 475-588 0-383-209-590-475-590-268 0-477 208-477 590 0 380 209 588 477 588" id="ae"/><g id="u"><use transform="matrix(0.010416666666666668,0,0,0.010416666666666668,0,0)" xlink:href="#R"/><use transform="matrix(0.010416666666666668,0,0,0.010416666666666668,10.656250000000002,0)" xlink:href="#Z"/><use transform="matrix(0.010416666666666668,0,0,0.010416666666666668,25.375000000000004,0)" xlink:href="#ab"/><use transform="matrix(0.010416666666666668,0,0,0.010416666666666668,38.79166666666667,0)" xlink:href="#Y"/><use transform="matrix(0.010416666666666668,0,0,0.010416666666666668,51.614583333333336,0)" xlink:href="#ad"/><use transform="matrix(0.010416666666666668,0,0,0.010416666666666668,67.68750000000001,0)" xlink:href="#Q"/><use transform="matrix(0.010416666666666668,0,0,0.010416666666666668,83.08333333333334,0)" xlink:href="#ae"/></g><g id="v"><use transform="matrix(0.010416666666666668,0,0,0.010416666666666668,0,0)" xlink:href="#R"/><use transform="matrix(0.010416666666666668,0,0,0.010416666666666668,12.593750000000002,0)" xlink:href="#Y"/><use transform="matrix(0.010416666666666668,0,0,0.010416666666666668,25.416666666666668,0)" xlink:href="#P"/><use transform="matrix(0.010416666666666668,0,0,0.010416666666666668,31.145833333333343,0)" xlink:href="#U"/><use transform="matrix(0.010416666666666668,0,0,0.010416666666666668,44.28125000000001,0)" xlink:href="#ae"/></g><path d="M653-1490V0H466v-1314h-10L96-1047v-204l324-239h233" id="af"/><use transform="matrix(0.008173828125000001,0,0,0.008173828125000001,0,0)" xlink:href="#af" id="w"/><path d="M646 20c-332 0-524-278-524-764 0-483 194-766 524-766s524 283 524 766c0 485-191 764-524 764zm0-166c218 0 341-220 341-598 0-380-123-601-341-601s-341 222-341 601c0 378 123 598 341 598" id="ag"/><path d="M295 13c-75 0-135-60-135-135s60-135 135-135 135 60 135 135S370 13 295 13" id="ah"/><path d="M441-652l13-317-268 171-72-126 282-146-282-146 72-128 268 171-13-317h144l-12 317 267-171 72 128-282 146 282 146-72 126-267-171 12 317H441" id="ai"/><g id="x"><use transform="matrix(0.008173828125000001,0,0,0.008173828125000001,0,0)" xlink:href="#ag"/><use transform="matrix(0.008173828125000001,0,0,0.008173828125000001,10.135546875000001,0)" xlink:href="#ah"/><use transform="matrix(0.008173828125000001,0,0,0.008173828125000001,14.958105468750002,0)" xlink:href="#ah"/><use transform="matrix(0.008173828125000001,0,0,0.008173828125000001,19.7806640625,0)" xlink:href="#ai"/></g></defs></g></svg>